# MagicaVoxel @ Ephtracy

# group
g fu

# material
mtllib fu.mtl
usemtl palette

# normals
vn -1 0 0
vn 1 0 0
vn 0 0 1
vn 0 0 -1
vn 0 -1 0
vn 0 1 0

# texcoords
vt 0.0175781 0.5
vt 0.845703 0.5

# verts
v -8 20 1
v -8 20 -0
v -8 21 1
v -8 21 -0
v -7 19 1
v -7 19 -0
v -7 20 1
v -7 20 -0
v -7 21 1
v -7 21 -0
v -7 22 1
v -7 22 -0
v -6 18 1
v -6 18 -0
v -6 19 1
v -6 19 -0
v -6 22 1
v -6 22 -0
v -6 23 1
v -6 23 -0
v -5 15 2
v -5 15 1
v -5 17 1
v -5 17 -0
v -5 18 1
v -5 18 -0
v -5 22 2
v -5 22 1
v -5 23 2
v -5 23 1
v -5 23 -0
v -5 24 2
v -5 24 1
v -5 24 -0
v -5 25 2
v -5 25 1
v -5 26 2
v -5 26 1
v -4 16 1
v -4 16 -0
v -4 17 1
v -4 17 -0
v -4 24 1
v -4 24 -0
v -4 25 1
v -4 25 -0
v -3 15 2
v -3 15 1
v -3 15 -0
v -3 16 1
v -3 16 -0
v -3 23 2
v -3 23 1
v -3 25 1
v -3 25 -0
v -3 26 1
v -3 26 -0
v -2 14 1
v -2 14 -0
v -2 15 1
v -2 15 -0
v -2 26 1
v -2 26 -0
v -2 27 1
v -2 27 -0
v -1 13 1
v -1 13 -0
v -1 14 1
v -1 14 -0
v -1 15 2
v -1 15 1
v -1 22 2
v -1 22 1
v -1 27 1
v -1 27 -0
v -1 28 1
v -1 28 -0
v 0 12 1
v 0 12 -0
v 0 13 1
v 0 13 -0
v 0 28 1
v 0 28 -0
v 0 29 1
v 0 29 -0
v 1 11 1
v 1 11 -0
v 1 12 1
v 1 12 -0
v 1 15 2
v 1 15 1
v 1 20 2
v 1 20 1
v 1 21 2
v 1 21 1
v 1 24 2
v 1 24 1
v 1 25 2
v 1 25 1
v 1 26 2
v 1 26 1
v 1 29 1
v 1 29 -0
v 1 30 1
v 1 30 -0
v 4 16 2
v 4 16 1
v 4 17 2
v 4 17 1
v 4 18 2
v 4 18 1
v 4 19 2
v 4 19 1
v 7 16 2
v 7 16 1
v 7 17 2
v 7 17 1
v 7 18 2
v 7 18 1
v 7 19 2
v 7 19 1
v 7 22 2
v 7 22 1
v 7 23 2
v 7 23 1
v -4 15 2
v -4 15 1
v -4 16 1
v -4 22 2
v -4 22 1
v -2 15 2
v -2 15 1
v -2 23 2
v -2 23 1
v 0 15 2
v 0 15 1
v 0 22 2
v 0 22 1
v 0 23 2
v 0 23 1
v 0 24 2
v 0 24 1
v 0 25 2
v 0 25 1
v 0 26 2
v 0 26 1
v 2 11 1
v 2 11 -0
v 2 12 1
v 2 12 -0
v 2 16 2
v 2 16 1
v 2 17 2
v 2 17 1
v 2 18 2
v 2 18 1
v 2 19 2
v 2 19 1
v 2 22 2
v 2 22 1
v 2 23 2
v 2 23 1
v 2 29 1
v 2 29 -0
v 2 30 1
v 2 30 -0
v 3 12 1
v 3 12 -0
v 3 13 1
v 3 13 -0
v 3 28 1
v 3 28 -0
v 3 29 1
v 3 29 -0
v 4 13 1
v 4 13 -0
v 4 14 1
v 4 14 -0
v 4 27 1
v 4 27 -0
v 4 28 1
v 4 28 -0
v 5 14 1
v 5 14 -0
v 5 15 1
v 5 15 -0
v 5 16 2
v 5 16 1
v 5 17 2
v 5 17 1
v 5 18 2
v 5 18 1
v 5 19 2
v 5 19 1
v 5 26 1
v 5 26 -0
v 5 27 1
v 5 27 -0
v 6 15 1
v 6 15 -0
v 6 16 1
v 6 16 -0
v 6 25 1
v 6 25 -0
v 6 26 1
v 6 26 -0
v 7 16 1
v 7 16 -0
v 7 17 1
v 7 17 -0
v 7 24 1
v 7 24 -0
v 7 25 1
v 7 25 -0
v 8 15 2
v 8 15 1
v 8 17 1
v 8 17 -0
v 8 18 1
v 8 18 -0
v 8 20 2
v 8 20 1
v 8 21 2
v 8 21 1
v 8 23 1
v 8 23 -0
v 8 24 2
v 8 24 1
v 8 24 -0
v 8 25 2
v 8 25 1
v 8 26 2
v 8 26 1
v 9 18 1
v 9 18 -0
v 9 19 1
v 9 19 -0
v 9 22 1
v 9 22 -0
v 9 23 1
v 9 23 -0
v 10 19 1
v 10 19 -0
v 10 20 1
v 10 20 -0
v 10 21 1
v 10 21 -0
v 10 22 1
v 10 22 -0
v 11 20 1
v 11 20 -0
v 11 21 1
v 11 21 -0
v -5 15 2
v -5 22 2
v -5 23 2
v -5 24 2
v -5 25 2
v -5 26 2
v -4 15 2
v -4 22 2
v -3 15 2
v -3 23 2
v -2 15 2
v -2 23 2
v -1 15 2
v -1 22 2
v 0 15 2
v 0 22 2
v 0 23 2
v 0 24 2
v 0 25 2
v 0 26 2
v 1 15 2
v 1 20 2
v 1 21 2
v 1 24 2
v 1 25 2
v 1 26 2
v 2 16 2
v 2 17 2
v 2 18 2
v 2 19 2
v 2 22 2
v 2 23 2
v 4 16 2
v 4 17 2
v 4 18 2
v 4 19 2
v 5 16 2
v 5 17 2
v 5 18 2
v 5 19 2
v 7 16 2
v 7 17 2
v 7 18 2
v 7 19 2
v 7 22 2
v 7 23 2
v 8 15 2
v 8 20 2
v 8 21 2
v 8 24 2
v 8 25 2
v 8 26 2
v -8 20 1
v -8 21 1
v -7 19 1
v -7 20 1
v -7 21 1
v -7 22 1
v -6 18 1
v -6 19 1
v -6 22 1
v -6 23 1
v -5 18 1
v -5 22 1
v -5 23 1
v -4 16 1
v -4 22 1
v -4 24 1
v -4 25 1
v -3 16 1
v -3 23 1
v -2 14 1
v -2 15 1
v -2 23 1
v -2 26 1
v -2 27 1
v -1 13 1
v -1 14 1
v -1 15 1
v -1 22 1
v -1 27 1
v -1 28 1
v 0 12 1
v 0 13 1
v 0 15 1
v 0 22 1
v 0 23 1
v 0 24 1
v 0 25 1
v 0 26 1
v 0 28 1
v 0 29 1
v 1 11 1
v 1 12 1
v 1 15 1
v 1 20 1
v 1 21 1
v 1 24 1
v 1 25 1
v 1 26 1
v 1 29 1
v 1 30 1
v 2 11 1
v 2 12 1
v 2 16 1
v 2 17 1
v 2 18 1
v 2 19 1
v 2 22 1
v 2 23 1
v 2 29 1
v 2 30 1
v 3 12 1
v 3 13 1
v 3 28 1
v 3 29 1
v 4 13 1
v 4 14 1
v 4 16 1
v 4 17 1
v 4 18 1
v 4 19 1
v 4 27 1
v 4 28 1
v 5 14 1
v 5 15 1
v 5 16 1
v 5 17 1
v 5 18 1
v 5 19 1
v 5 26 1
v 5 27 1
v 7 16 1
v 7 17 1
v 7 18 1
v 7 19 1
v 7 22 1
v 7 23 1
v 7 24 1
v 7 25 1
v 8 18 1
v 8 20 1
v 8 21 1
v 8 23 1
v 9 18 1
v 9 19 1
v 9 22 1
v 9 23 1
v 10 19 1
v 10 20 1
v 10 21 1
v 10 22 1
v 11 20 1
v 11 21 1
v -5 15 1
v -5 17 1
v -5 25 1
v -5 26 1
v -4 15 1
v -4 16 1
v -4 17 1
v -4 25 1
v -3 25 1
v -3 26 1
v 6 15 1
v 6 16 1
v 6 25 1
v 6 26 1
v 7 16 1
v 7 17 1
v 7 25 1
v 8 15 1
v 8 17 1
v 8 25 1
v 8 26 1
v -8 20 -0
v -8 21 -0
v -7 19 -0
v -7 20 -0
v -7 21 -0
v -7 22 -0
v -6 18 -0
v -6 19 -0
v -6 22 -0
v -6 23 -0
v -5 17 -0
v -5 18 -0
v -5 23 -0
v -5 24 -0
v -4 16 -0
v -4 17 -0
v -4 24 -0
v -4 25 -0
v -3 15 -0
v -3 16 -0
v -3 25 -0
v -3 26 -0
v -2 14 -0
v -2 15 -0
v -2 26 -0
v -2 27 -0
v -1 13 -0
v -1 14 -0
v -1 27 -0
v -1 28 -0
v 0 12 -0
v 0 13 -0
v 0 28 -0
v 0 29 -0
v 1 11 -0
v 1 12 -0
v 1 29 -0
v 1 30 -0
v 2 11 -0
v 2 12 -0
v 2 29 -0
v 2 30 -0
v 3 12 -0
v 3 13 -0
v 3 28 -0
v 3 29 -0
v 4 13 -0
v 4 14 -0
v 4 27 -0
v 4 28 -0
v 5 14 -0
v 5 15 -0
v 5 26 -0
v 5 27 -0
v 6 15 -0
v 6 16 -0
v 6 25 -0
v 6 26 -0
v 7 16 -0
v 7 17 -0
v 7 24 -0
v 7 25 -0
v 8 17 -0
v 8 18 -0
v 8 23 -0
v 8 24 -0
v 9 18 -0
v 9 19 -0
v 9 22 -0
v 9 23 -0
v 10 19 -0
v 10 20 -0
v 10 21 -0
v 10 22 -0
v 11 20 -0
v 11 21 -0
v 1 11 1
v 2 11 1
v 1 11 -0
v 2 11 -0
v 0 12 1
v 1 12 1
v 2 12 1
v 3 12 1
v 0 12 -0
v 1 12 -0
v 2 12 -0
v 3 12 -0
v -1 13 1
v 0 13 1
v 3 13 1
v 4 13 1
v -1 13 -0
v 0 13 -0
v 3 13 -0
v 4 13 -0
v -2 14 1
v -1 14 1
v 4 14 1
v 5 14 1
v -2 14 -0
v -1 14 -0
v 4 14 -0
v 5 14 -0
v -5 15 2
v -4 15 2
v -3 15 2
v -2 15 2
v -1 15 2
v 0 15 2
v 1 15 2
v 8 15 2
v -5 15 1
v -4 15 1
v -3 15 1
v -2 15 1
v -1 15 1
v 0 15 1
v 1 15 1
v 5 15 1
v 6 15 1
v 8 15 1
v -3 15 -0
v -2 15 -0
v 5 15 -0
v 6 15 -0
v -4 16 1
v -3 16 1
v 6 16 1
v 7 16 1
v -4 16 -0
v -3 16 -0
v 6 16 -0
v 7 16 -0
v 2 17 2
v 4 17 2
v 5 17 2
v 7 17 2
v -5 17 1
v -4 17 1
v 2 17 1
v 4 17 1
v 5 17 1
v 7 17 1
v 8 17 1
v -5 17 -0
v -4 17 -0
v 7 17 -0
v 8 17 -0
v -6 18 1
v -5 18 1
v 8 18 1
v 9 18 1
v -6 18 -0
v -5 18 -0
v 8 18 -0
v 9 18 -0
v 2 19 2
v 4 19 2
v 5 19 2
v 7 19 2
v -7 19 1
v -6 19 1
v 2 19 1
v 4 19 1
v 5 19 1
v 7 19 1
v 9 19 1
v 10 19 1
v -7 19 -0
v -6 19 -0
v 9 19 -0
v 10 19 -0
v -8 20 1
v -7 20 1
v 10 20 1
v 11 20 1
v -8 20 -0
v -7 20 -0
v 10 20 -0
v 11 20 -0
v 1 21 2
v 8 21 2
v 1 21 1
v 8 21 1
v -5 23 2
v -3 23 2
v -2 23 2
v 0 23 2
v 2 23 2
v 7 23 2
v -5 23 1
v -3 23 1
v -2 23 1
v 0 23 1
v 2 23 1
v 7 23 1
v -5 25 2
v 0 25 2
v 1 25 2
v 8 25 2
v -5 25 1
v -4 25 1
v 0 25 1
v 1 25 1
v 7 25 1
v 8 25 1
v 2 16 2
v 4 16 2
v 5 16 2
v 7 16 2
v 2 16 1
v 4 16 1
v 5 16 1
v 7 16 1
v 2 18 2
v 4 18 2
v 5 18 2
v 7 18 2
v 2 18 1
v 4 18 1
v 5 18 1
v 7 18 1
v 1 20 2
v 8 20 2
v 1 20 1
v 8 20 1
v -8 21 1
v -7 21 1
v 10 21 1
v 11 21 1
v -8 21 -0
v -7 21 -0
v 10 21 -0
v 11 21 -0
v -5 22 2
v -4 22 2
v -1 22 2
v 0 22 2
v 2 22 2
v 7 22 2
v -7 22 1
v -6 22 1
v -5 22 1
v -4 22 1
v -1 22 1
v 0 22 1
v 2 22 1
v 7 22 1
v 9 22 1
v 10 22 1
v -7 22 -0
v -6 22 -0
v 9 22 -0
v 10 22 -0
v -6 23 1
v -5 23 1
v 8 23 1
v 9 23 1
v -6 23 -0
v -5 23 -0
v 8 23 -0
v 9 23 -0
v -5 24 2
v 0 24 2
v 1 24 2
v 8 24 2
v -5 24 1
v -4 24 1
v 0 24 1
v 1 24 1
v 7 24 1
v 8 24 1
v -5 24 -0
v -4 24 -0
v 7 24 -0
v 8 24 -0
v -4 25 1
v -3 25 1
v 6 25 1
v 7 25 1
v -4 25 -0
v -3 25 -0
v 6 25 -0
v 7 25 -0
v -5 26 2
v 0 26 2
v 1 26 2
v 8 26 2
v -5 26 1
v -3 26 1
v -2 26 1
v 0 26 1
v 1 26 1
v 5 26 1
v 6 26 1
v 8 26 1
v -3 26 -0
v -2 26 -0
v 5 26 -0
v 6 26 -0
v -2 27 1
v -1 27 1
v 4 27 1
v 5 27 1
v -2 27 -0
v -1 27 -0
v 4 27 -0
v 5 27 -0
v -1 28 1
v 0 28 1
v 3 28 1
v 4 28 1
v -1 28 -0
v 0 28 -0
v 3 28 -0
v 4 28 -0
v 0 29 1
v 1 29 1
v 2 29 1
v 3 29 1
v 0 29 -0
v 1 29 -0
v 2 29 -0
v 3 29 -0
v 1 30 1
v 2 30 1
v 1 30 -0
v 2 30 -0

# faces
f 3/2/1 2/2/1 1/2/1
f 4/2/1 2/2/1 3/2/1
f 7/2/1 6/2/1 5/2/1
f 8/2/1 6/2/1 7/2/1
f 11/2/1 10/2/1 9/2/1
f 12/2/1 10/2/1 11/2/1
f 15/2/1 14/2/1 13/2/1
f 16/2/1 14/2/1 15/2/1
f 19/2/1 18/2/1 17/2/1
f 20/2/1 18/2/1 19/2/1
f 23/1/1 22/1/1 21/1/1
f 25/1/1 23/1/1 21/1/1
f 25/2/1 24/2/1 23/2/1
f 26/2/1 24/2/1 25/2/1
f 27/1/1 25/1/1 21/1/1
f 28/1/1 25/1/1 27/1/1
f 32/1/1 30/1/1 29/1/1
f 33/2/1 31/2/1 30/2/1
f 33/1/1 30/1/1 32/1/1
f 34/2/1 31/2/1 33/2/1
f 37/1/1 36/1/1 35/1/1
f 38/1/1 36/1/1 37/1/1
f 41/2/1 40/2/1 39/2/1
f 42/2/1 40/2/1 41/2/1
f 45/2/1 44/2/1 43/2/1
f 46/2/1 44/2/1 45/2/1
f 50/1/1 48/1/1 47/1/1
f 50/2/1 49/2/1 48/2/1
f 51/2/1 49/2/1 50/2/1
f 52/1/1 50/1/1 47/1/1
f 53/1/1 50/1/1 52/1/1
f 56/2/1 55/2/1 54/2/1
f 57/2/1 55/2/1 56/2/1
f 60/2/1 59/2/1 58/2/1
f 61/2/1 59/2/1 60/2/1
f 64/2/1 63/2/1 62/2/1
f 65/2/1 63/2/1 64/2/1
f 68/2/1 67/2/1 66/2/1
f 69/2/1 67/2/1 68/2/1
f 72/1/1 71/1/1 70/1/1
f 73/1/1 71/1/1 72/1/1
f 76/2/1 75/2/1 74/2/1
f 77/2/1 75/2/1 76/2/1
f 80/2/1 79/2/1 78/2/1
f 81/2/1 79/2/1 80/2/1
f 84/2/1 83/2/1 82/2/1
f 85/2/1 83/2/1 84/2/1
f 88/2/1 87/2/1 86/2/1
f 89/2/1 87/2/1 88/2/1
f 92/1/1 91/1/1 90/1/1
f 93/1/1 91/1/1 92/1/1
f 96/1/1 95/1/1 94/1/1
f 97/1/1 95/1/1 96/1/1
f 100/1/1 99/1/1 98/1/1
f 101/1/1 99/1/1 100/1/1
f 104/2/1 103/2/1 102/2/1
f 105/2/1 103/2/1 104/2/1
f 108/1/1 107/1/1 106/1/1
f 109/1/1 107/1/1 108/1/1
f 112/1/1 111/1/1 110/1/1
f 113/1/1 111/1/1 112/1/1
f 116/1/1 115/1/1 114/1/1
f 117/1/1 115/1/1 116/1/1
f 120/1/1 119/1/1 118/1/1
f 121/1/1 119/1/1 120/1/1
f 124/1/1 123/1/1 122/1/1
f 125/1/1 123/1/1 124/1/1
f 126/1/2 127/1/2 128/1/2
f 126/1/2 128/1/2 129/1/2
f 129/1/2 128/1/2 130/1/2
f 131/1/2 132/1/2 133/1/2
f 133/1/2 132/1/2 134/1/2
f 135/1/2 136/1/2 137/1/2
f 137/1/2 136/1/2 138/1/2
f 139/1/2 140/1/2 141/1/2
f 141/1/2 140/1/2 142/1/2
f 143/1/2 144/1/2 145/1/2
f 145/1/2 144/1/2 146/1/2
f 147/2/2 148/2/2 149/2/2
f 149/2/2 148/2/2 150/2/2
f 151/1/2 152/1/2 153/1/2
f 153/1/2 152/1/2 154/1/2
f 155/1/2 156/1/2 157/1/2
f 157/1/2 156/1/2 158/1/2
f 159/1/2 160/1/2 161/1/2
f 161/1/2 160/1/2 162/1/2
f 163/2/2 164/2/2 165/2/2
f 165/2/2 164/2/2 166/2/2
f 167/2/2 168/2/2 169/2/2
f 169/2/2 168/2/2 170/2/2
f 171/2/2 172/2/2 173/2/2
f 173/2/2 172/2/2 174/2/2
f 175/2/2 176/2/2 177/2/2
f 177/2/2 176/2/2 178/2/2
f 179/2/2 180/2/2 181/2/2
f 181/2/2 180/2/2 182/2/2
f 183/2/2 184/2/2 185/2/2
f 185/2/2 184/2/2 186/2/2
f 187/1/2 188/1/2 189/1/2
f 189/1/2 188/1/2 190/1/2
f 191/1/2 192/1/2 193/1/2
f 193/1/2 192/1/2 194/1/2
f 195/2/2 196/2/2 197/2/2
f 197/2/2 196/2/2 198/2/2
f 199/2/2 200/2/2 201/2/2
f 201/2/2 200/2/2 202/2/2
f 203/2/2 204/2/2 205/2/2
f 205/2/2 204/2/2 206/2/2
f 207/2/2 208/2/2 209/2/2
f 209/2/2 208/2/2 210/2/2
f 211/2/2 212/2/2 213/2/2
f 213/2/2 212/2/2 214/2/2
f 215/1/2 216/1/2 217/1/2
f 215/1/2 217/1/2 219/1/2
f 217/2/2 218/2/2 219/2/2
f 219/2/2 218/2/2 220/2/2
f 215/1/2 219/1/2 221/1/2
f 221/1/2 219/1/2 222/1/2
f 223/1/2 224/1/2 225/1/2
f 223/1/2 225/1/2 227/1/2
f 225/2/2 226/2/2 228/2/2
f 227/1/2 225/1/2 228/1/2
f 228/2/2 226/2/2 229/2/2
f 230/1/2 231/1/2 232/1/2
f 232/1/2 231/1/2 233/1/2
f 234/2/2 235/2/2 236/2/2
f 236/2/2 235/2/2 237/2/2
f 238/2/2 239/2/2 240/2/2
f 240/2/2 239/2/2 241/2/2
f 242/2/2 243/2/2 244/2/2
f 244/2/2 243/2/2 245/2/2
f 246/2/2 247/2/2 248/2/2
f 248/2/2 247/2/2 249/2/2
f 250/2/2 251/2/2 252/2/2
f 252/2/2 251/2/2 253/2/2
f 260/1/3 255/1/3 254/1/3
f 261/1/3 255/1/3 260/1/3
f 263/1/3 257/1/3 256/1/3
f 264/1/3 263/1/3 262/1/3
f 265/1/3 257/1/3 263/1/3
f 265/1/3 263/1/3 264/1/3
f 268/1/3 267/1/3 266/1/3
f 269/1/3 267/1/3 268/1/3
f 270/1/3 257/1/3 265/1/3
f 271/1/3 257/1/3 270/1/3
f 272/1/3 259/1/3 258/1/3
f 273/1/3 259/1/3 272/1/3
f 280/1/3 275/1/3 274/1/3
f 281/1/3 275/1/3 280/1/3
f 282/1/3 275/1/3 281/1/3
f 283/1/3 275/1/3 282/1/3
f 284/1/3 277/1/3 276/1/3
f 285/1/3 277/1/3 284/1/3
f 286/1/3 280/1/3 274/1/3
f 287/1/3 282/1/3 281/1/3
f 288/1/3 282/1/3 287/1/3
f 289/1/3 275/1/3 283/1/3
f 290/1/3 288/1/3 287/1/3
f 290/1/3 289/1/3 288/1/3
f 290/1/3 286/1/3 274/1/3
f 290/1/3 287/1/3 286/1/3
f 291/1/3 289/1/3 290/1/3
f 292/1/3 289/1/3 291/1/3
f 293/1/3 275/1/3 289/1/3
f 293/1/3 289/1/3 292/1/3
f 294/1/3 290/1/3 274/1/3
f 295/1/3 292/1/3 291/1/3
f 296/1/3 292/1/3 295/1/3
f 297/1/3 275/1/3 293/1/3
f 298/1/3 284/1/3 276/1/3
f 299/1/3 277/1/3 285/1/3
f 300/1/3 294/1/3 274/1/3
f 300/1/3 297/1/3 296/1/3
f 300/1/3 296/1/3 295/1/3
f 300/1/3 295/1/3 294/1/3
f 301/1/3 275/1/3 297/1/3
f 301/1/3 297/1/3 300/1/3
f 302/1/3 299/1/3 298/1/3
f 302/1/3 298/1/3 276/1/3
f 303/1/3 277/1/3 299/1/3
f 303/1/3 299/1/3 302/1/3
f 304/1/3 279/1/3 278/1/3
f 305/1/3 279/1/3 304/1/3
f 309/2/3 307/2/3 306/2/3
f 310/2/3 307/2/3 309/2/3
f 313/2/3 309/2/3 308/2/3
f 313/2/3 311/2/3 310/2/3
f 313/2/3 310/2/3 309/2/3
f 314/2/3 311/2/3 313/2/3
f 316/2/3 313/2/3 312/2/3
f 316/2/3 315/2/3 314/2/3
f 316/2/3 314/2/3 313/2/3
f 317/2/3 315/2/3 316/2/3
f 318/2/3 315/2/3 317/2/3
f 320/2/3 318/2/3 317/2/3
f 323/2/3 320/2/3 319/2/3
f 324/2/3 318/2/3 320/2/3
f 324/2/3 320/2/3 323/2/3
f 331/2/3 327/2/3 326/2/3
f 331/2/3 326/2/3 325/2/3
f 332/2/3 327/2/3 331/2/3
f 333/2/3 327/2/3 332/2/3
f 334/2/3 329/2/3 328/2/3
f 337/2/3 331/2/3 330/2/3
f 337/2/3 332/2/3 331/2/3
f 338/2/3 332/2/3 337/2/3
f 339/2/3 327/2/3 333/2/3
f 340/2/3 327/2/3 339/2/3
f 341/2/3 322/2/3 321/2/3
f 342/2/3 322/2/3 341/2/3
f 343/2/3 334/2/3 328/2/3
f 343/2/3 335/2/3 334/2/3
f 344/2/3 335/2/3 343/2/3
f 347/2/3 340/2/3 339/2/3
f 347/2/3 345/2/3 344/2/3
f 347/2/3 344/2/3 343/2/3
f 347/2/3 343/2/3 342/2/3
f 347/2/3 338/2/3 337/2/3
f 347/2/3 342/2/3 341/2/3
f 347/2/3 339/2/3 338/2/3
f 347/2/3 341/2/3 340/2/3
f 347/2/3 337/2/3 336/2/3
f 348/2/3 345/2/3 347/2/3
f 349/2/3 345/2/3 348/2/3
f 350/2/3 345/2/3 349/2/3
f 351/2/3 345/2/3 350/2/3
f 352/2/3 345/2/3 351/2/3
f 353/2/3 345/2/3 352/2/3
f 354/2/3 345/2/3 353/2/3
f 356/2/3 347/2/3 346/2/3
f 356/2/3 348/2/3 347/2/3
f 357/2/3 348/2/3 356/2/3
f 364/2/3 355/2/3 354/2/3
f 364/2/3 354/2/3 353/2/3
f 365/2/3 355/2/3 364/2/3
f 366/2/3 348/2/3 357/2/3
f 367/2/3 348/2/3 366/2/3
f 368/2/3 364/2/3 353/2/3
f 369/2/3 364/2/3 368/2/3
f 370/2/3 348/2/3 367/2/3
f 371/2/3 348/2/3 370/2/3
f 372/2/3 359/2/3 358/2/3
f 373/2/3 359/2/3 372/2/3
f 374/2/3 361/2/3 360/2/3
f 375/2/3 361/2/3 374/2/3
f 376/2/3 368/2/3 353/2/3
f 377/2/3 368/2/3 376/2/3
f 378/2/3 348/2/3 371/2/3
f 379/2/3 348/2/3 378/2/3
f 384/2/3 376/2/3 353/2/3
f 385/2/3 376/2/3 384/2/3
f 386/2/3 381/2/3 380/2/3
f 387/2/3 381/2/3 386/2/3
f 388/2/3 383/2/3 382/2/3
f 389/2/3 383/2/3 388/2/3
f 390/2/3 363/2/3 362/2/3
f 391/2/3 363/2/3 390/2/3
f 392/2/3 352/2/3 351/2/3
f 393/2/3 352/2/3 392/2/3
f 395/2/3 350/2/3 349/2/3
f 396/2/3 350/2/3 395/2/3
f 398/2/3 395/2/3 394/2/3
f 398/2/3 397/2/3 396/2/3
f 398/2/3 396/2/3 395/2/3
f 399/2/3 397/2/3 398/2/3
f 400/2/3 397/2/3 399/2/3
f 401/2/3 397/2/3 400/2/3
f 402/2/3 400/2/3 399/2/3
f 403/2/3 400/2/3 402/2/3
f 404/2/3 400/2/3 403/2/3
f 405/2/3 400/2/3 404/2/3
f 406/2/3 404/2/3 403/2/3
f 407/2/3 404/2/3 406/2/3
f 408/1/4 409/1/4 412/1/4
f 412/1/4 409/1/4 413/1/4
f 413/1/4 409/1/4 414/1/4
f 410/1/4 411/1/4 415/1/4
f 415/1/4 411/1/4 416/1/4
f 416/1/4 411/1/4 417/1/4
f 418/1/4 419/1/4 422/1/4
f 420/1/4 421/1/4 424/1/4
f 422/1/4 423/1/4 425/1/4
f 418/1/4 422/1/4 425/1/4
f 425/1/4 423/1/4 426/1/4
f 424/1/4 421/1/4 427/1/4
f 427/1/4 421/1/4 428/1/4
f 429/2/4 430/2/4 432/2/4
f 432/2/4 430/2/4 433/2/4
f 431/2/4 432/2/4 436/2/4
f 433/2/4 434/2/4 436/2/4
f 432/2/4 433/2/4 436/2/4
f 436/2/4 434/2/4 437/2/4
f 435/2/4 436/2/4 440/2/4
f 437/2/4 438/2/4 440/2/4
f 436/2/4 437/2/4 440/2/4
f 440/2/4 438/2/4 441/2/4
f 439/2/4 440/2/4 444/2/4
f 441/2/4 442/2/4 444/2/4
f 440/2/4 441/2/4 444/2/4
f 444/2/4 442/2/4 445/2/4
f 443/2/4 444/2/4 448/2/4
f 445/2/4 446/2/4 448/2/4
f 444/2/4 445/2/4 448/2/4
f 448/2/4 446/2/4 449/2/4
f 447/2/4 448/2/4 452/2/4
f 449/2/4 450/2/4 452/2/4
f 448/2/4 449/2/4 452/2/4
f 452/2/4 450/2/4 453/2/4
f 451/2/4 452/2/4 456/2/4
f 453/2/4 454/2/4 456/2/4
f 452/2/4 453/2/4 456/2/4
f 456/2/4 454/2/4 457/2/4
f 455/2/4 456/2/4 460/2/4
f 457/2/4 458/2/4 460/2/4
f 456/2/4 457/2/4 460/2/4
f 460/2/4 458/2/4 461/2/4
f 459/2/4 460/2/4 464/2/4
f 461/2/4 462/2/4 464/2/4
f 460/2/4 461/2/4 464/2/4
f 464/2/4 462/2/4 465/2/4
f 463/2/4 464/2/4 467/2/4
f 465/2/4 466/2/4 467/2/4
f 464/2/4 465/2/4 467/2/4
f 467/2/4 466/2/4 468/2/4
f 468/2/4 466/2/4 469/2/4
f 469/2/4 466/2/4 470/2/4
f 468/2/4 469/2/4 471/2/4
f 471/2/4 469/2/4 472/2/4
f 472/2/4 469/2/4 473/2/4
f 473/2/4 469/2/4 474/2/4
f 472/2/4 473/2/4 475/2/4
f 475/2/4 473/2/4 476/2/4
f 476/2/4 473/2/4 477/2/4
f 477/2/4 473/2/4 478/2/4
f 476/2/4 477/2/4 479/2/4
f 479/2/4 477/2/4 480/2/4
f 480/2/4 477/2/4 481/2/4
f 481/2/4 477/2/4 482/2/4
f 480/2/4 481/2/4 483/2/4
f 483/2/4 481/2/4 484/2/4
f 484/2/4 481/2/4 485/2/4
f 485/2/4 481/2/4 486/2/4
f 484/2/4 485/2/4 487/2/4
f 487/2/4 485/2/4 488/2/4
f 488/2/4 485/2/4 489/2/4
f 489/2/4 485/2/4 490/2/4
f 488/2/4 489/2/4 491/2/4
f 491/2/4 489/2/4 492/2/4
f 492/2/4 489/2/4 493/2/4
f 493/2/4 489/2/4 494/2/4
f 492/2/4 493/2/4 495/2/4
f 495/2/4 493/2/4 496/2/4
f 496/2/4 493/2/4 497/2/4
f 497/2/4 493/2/4 498/2/4
f 496/2/4 497/2/4 499/2/4
f 499/2/4 497/2/4 500/2/4
f 500/2/4 497/2/4 501/2/4
f 501/2/4 497/2/4 502/2/4
f 500/2/4 501/2/4 503/2/4
f 503/2/4 501/2/4 504/2/4
f 507/2/5 506/2/5 505/2/5
f 508/2/5 506/2/5 507/2/5
f 513/2/5 510/2/5 509/2/5
f 514/2/5 510/2/5 513/2/5
f 515/2/5 512/2/5 511/2/5
f 516/2/5 512/2/5 515/2/5
f 521/2/5 518/2/5 517/2/5
f 522/2/5 518/2/5 521/2/5
f 523/2/5 520/2/5 519/2/5
f 524/2/5 520/2/5 523/2/5
f 529/2/5 526/2/5 525/2/5
f 530/2/5 526/2/5 529/2/5
f 531/2/5 528/2/5 527/2/5
f 532/2/5 528/2/5 531/2/5
f 541/1/5 534/1/5 533/1/5
f 542/1/5 534/1/5 541/1/5
f 543/1/5 536/1/5 535/1/5
f 544/1/5 536/1/5 543/1/5
f 545/1/5 538/1/5 537/1/5
f 546/1/5 538/1/5 545/1/5
f 547/1/5 540/1/5 539/1/5
f 548/1/5 540/1/5 547/1/5
f 549/1/5 540/1/5 548/1/5
f 550/1/5 540/1/5 549/1/5
f 551/2/5 544/2/5 543/2/5
f 552/2/5 544/2/5 551/2/5
f 553/2/5 549/2/5 548/2/5
f 554/2/5 549/2/5 553/2/5
f 559/2/5 556/2/5 555/2/5
f 560/2/5 556/2/5 559/2/5
f 561/2/5 558/2/5 557/2/5
f 562/2/5 558/2/5 561/2/5
f 569/1/5 564/1/5 563/1/5
f 570/1/5 564/1/5 569/1/5
f 571/1/5 566/1/5 565/1/5
f 572/1/5 566/1/5 571/1/5
f 574/2/5 568/2/5 567/2/5
f 575/2/5 568/2/5 574/2/5
f 576/2/5 573/2/5 572/2/5
f 577/2/5 573/2/5 576/2/5
f 582/2/5 579/2/5 578/2/5
f 583/2/5 579/2/5 582/2/5
f 584/2/5 581/2/5 580/2/5
f 585/2/5 581/2/5 584/2/5
f 592/1/5 587/1/5 586/1/5
f 593/1/5 587/1/5 592/1/5
f 594/1/5 589/1/5 588/1/5
f 595/1/5 589/1/5 594/1/5
f 598/2/5 591/2/5 590/2/5
f 599/2/5 591/2/5 598/2/5
f 600/2/5 597/2/5 596/2/5
f 601/2/5 597/2/5 600/2/5
f 606/2/5 603/2/5 602/2/5
f 607/2/5 603/2/5 606/2/5
f 608/2/5 605/2/5 604/2/5
f 609/2/5 605/2/5 608/2/5
f 612/1/5 611/1/5 610/1/5
f 613/1/5 611/1/5 612/1/5
f 620/1/5 615/1/5 614/1/5
f 621/1/5 615/1/5 620/1/5
f 622/1/5 617/1/5 616/1/5
f 623/1/5 617/1/5 622/1/5
f 624/1/5 619/1/5 618/1/5
f 625/1/5 619/1/5 624/1/5
f 630/1/5 627/1/5 626/1/5
f 631/1/5 627/1/5 630/1/5
f 632/1/5 627/1/5 631/1/5
f 633/1/5 629/1/5 628/1/5
f 634/1/5 629/1/5 633/1/5
f 635/1/5 629/1/5 634/1/5
f 636/1/6 637/1/6 640/1/6
f 640/1/6 637/1/6 641/1/6
f 638/1/6 639/1/6 642/1/6
f 642/1/6 639/1/6 643/1/6
f 644/1/6 645/1/6 648/1/6
f 648/1/6 645/1/6 649/1/6
f 646/1/6 647/1/6 650/1/6
f 650/1/6 647/1/6 651/1/6
f 652/1/6 653/1/6 654/1/6
f 654/1/6 653/1/6 655/1/6
f 656/2/6 657/2/6 660/2/6
f 660/2/6 657/2/6 661/2/6
f 658/2/6 659/2/6 662/2/6
f 662/2/6 659/2/6 663/2/6
f 664/1/6 665/1/6 672/1/6
f 672/1/6 665/1/6 673/1/6
f 666/1/6 667/1/6 674/1/6
f 674/1/6 667/1/6 675/1/6
f 668/1/6 669/1/6 676/1/6
f 676/1/6 669/1/6 677/1/6
f 670/2/6 671/2/6 680/2/6
f 680/2/6 671/2/6 681/2/6
f 678/2/6 679/2/6 682/2/6
f 682/2/6 679/2/6 683/2/6
f 684/2/6 685/2/6 688/2/6
f 688/2/6 685/2/6 689/2/6
f 686/2/6 687/2/6 690/2/6
f 690/2/6 687/2/6 691/2/6
f 692/1/6 693/1/6 696/1/6
f 696/1/6 693/1/6 697/1/6
f 697/1/6 693/1/6 698/1/6
f 694/1/6 695/1/6 699/1/6
f 699/1/6 695/1/6 700/1/6
f 700/1/6 695/1/6 701/1/6
f 696/2/6 697/2/6 702/2/6
f 702/2/6 697/2/6 703/2/6
f 700/2/6 701/2/6 704/2/6
f 704/2/6 701/2/6 705/2/6
f 706/2/6 707/2/6 710/2/6
f 710/2/6 707/2/6 711/2/6
f 708/2/6 709/2/6 712/2/6
f 712/2/6 709/2/6 713/2/6
f 714/1/6 715/1/6 718/1/6
f 718/1/6 715/1/6 719/1/6
f 719/1/6 715/1/6 720/1/6
f 720/1/6 715/1/6 721/1/6
f 716/1/6 717/1/6 722/1/6
f 722/1/6 717/1/6 723/1/6
f 723/1/6 717/1/6 724/1/6
f 724/1/6 717/1/6 725/1/6
f 719/2/6 720/2/6 726/2/6
f 726/2/6 720/2/6 727/2/6
f 723/2/6 724/2/6 728/2/6
f 728/2/6 724/2/6 729/2/6
f 730/2/6 731/2/6 734/2/6
f 734/2/6 731/2/6 735/2/6
f 732/2/6 733/2/6 736/2/6
f 736/2/6 733/2/6 737/2/6
f 738/2/6 739/2/6 742/2/6
f 742/2/6 739/2/6 743/2/6
f 740/2/6 741/2/6 744/2/6
f 744/2/6 741/2/6 745/2/6
f 746/2/6 747/2/6 750/2/6
f 750/2/6 747/2/6 751/2/6
f 748/2/6 749/2/6 752/2/6
f 752/2/6 749/2/6 753/2/6
f 754/2/6 755/2/6 756/2/6
f 756/2/6 755/2/6 757/2/6
